<?xml version="1.0" encoding="utf-8"?>
<!-- Generator: Adobe Illustrator 19.2.1, SVG Export Plug-In . SVG Version: 6.00 Build 0)  -->
<svg version="1.1" id="Layer_1" xmlns="http://www.w3.org/2000/svg" xmlns:xlink="http://www.w3.org/1999/xlink" x="0px" y="0px"
	 viewBox="0 0 430.122 125.558" style="enable-background:new 0 0 430.122 125.558;" xml:space="preserve">
<style type="text/css">
	.st0{fill:#231F20;}
	.st1{fill:#003976;}
	.st2{fill:#EFAB00;}
	.st3{fill:#FFFFFF;}
</style>
<g>
	<path class="st1" d="M6.707,58.648c0-12.023,0-14.182-0.154-16.648c-0.154-2.621-0.772-3.854-3.315-4.395
		c-0.617-0.154-1.928-0.23-2.621-0.23C0.309,37.375,0,37.221,0,36.912c0-0.461,0.386-0.617,1.234-0.617
		c3.469,0,8.016,0.232,8.479,0.232c0.693,0,5.164-0.232,7.476-0.232c0.848,0,1.233,0.156,1.233,0.617
		c0,0.309-0.309,0.463-0.616,0.463c-0.54,0-1.002,0.076-1.928,0.23c-2.081,0.387-2.697,1.697-2.852,4.395
		c-0.154,2.467-0.154,4.625-0.154,16.648v4.625h0.309c1.311-1.465,15.262-15.646,18.037-18.652c2.158-2.236,4.162-4.24,4.162-5.551
		c0-0.924-0.385-1.387-1.002-1.619c-0.386-0.152-0.694-0.309-0.694-0.615c0-0.385,0.386-0.541,0.925-0.541
		c1.542,0,3.932,0.232,5.781,0.232c0.386,0,5.473-0.232,7.4-0.232c0.848,0,1.156,0.156,1.156,0.541s-0.154,0.539-0.771,0.539
		c-1.156,0-2.775,0.385-4.316,1.078c-3.16,1.389-4.855,3.314-8.324,6.629c-1.928,1.852-15.34,14.955-16.958,16.881
		c2.004,2.236,18.036,18.809,21.196,21.736c6.476,6.013,7.785,7.247,11.486,8.788c2.004,0.848,4.238,1.002,4.778,1.002
		c0.54,0,1.002,0.154,1.002,0.463c0,0.385-0.386,0.617-1.696,0.617h-3.931c-2.157,0-3.622,0-5.318-0.154
		c-4.085-0.387-6.013-2.082-9.327-4.703c-3.469-2.851-19.809-20.503-23.51-25.05h-0.385v7.553c0,7.4,0,13.488,0.385,16.726
		c0.232,2.236,0.694,3.932,3.007,4.24c1.079,0.154,2.312,0.309,3.007,0.309c0.461,0,0.615,0.232,0.615,0.463
		c0,0.385-0.385,0.617-1.232,0.617c-3.777,0-8.248-0.232-8.864-0.232c-0.617,0-5.087,0.232-7.399,0.232
		c-0.849,0-1.234-0.154-1.234-0.617c0-0.23,0.154-0.463,0.617-0.463c0.693,0,1.619-0.154,2.312-0.309
		c1.541-0.309,1.927-2.004,2.235-4.24c0.386-3.237,0.386-9.325,0.386-16.726V58.648z"/>
	<path class="st1" d="M58.504,58.648c0-12.023,0-14.182-0.154-16.648c-0.154-2.621-0.771-3.854-3.315-4.395
		c-0.617-0.154-1.927-0.23-2.621-0.23c-0.309,0-0.616-0.154-0.616-0.463c0-0.461,0.386-0.617,1.233-0.617
		c1.773,0,3.854,0,5.55,0.078l3.161,0.154c0.539,0,21.563,0,23.335-0.076c1.464-0.078,2.697-0.232,3.314-0.387
		c0.386-0.076,0.693-0.385,1.079-0.385c0.23,0,0.309,0.309,0.309,0.693c0,0.539-0.386,1.465-0.617,3.623
		c-0.077,0.771-0.23,4.162-0.385,5.086c-0.078,0.387-0.232,0.848-0.54,0.848c-0.463,0-0.616-0.385-0.616-1
		c0-0.541-0.078-2.662-0.463-3.588c-0.539-1.233-2.123-1.346-6.285-1.809c-1.288-0.152-14.584-0.23-15.432-0.23
		c-0.309,0-0.463,0.23-0.463,0.77v21.275c0,0.539,0.077,0.77,0.463,0.77c1.002,0,16.167,0,17.939-0.154
		c1.85-0.154,2.93-0.307,3.623-1.078c0.539-0.617,0.848-1.002,1.156-1.002c0.231,0,0.385,0.154,0.385,0.617
		c0,0.461-0.385,1.771-0.616,4.314c-0.154,1.543-0.308,4.395-0.308,4.934c0,0.617,0,1.465-0.54,1.465
		c-0.386,0-0.54-0.309-0.54-0.693c0-0.771,0-1.543-0.309-2.543c-0.308-1.08-1.813-2.391-4.819-2.699
		c-2.081-0.23-14.585-0.385-15.896-0.385c-0.385,0-0.539,0.23-0.539,0.541v6.781c0,2.621-0.076,11.562,0,13.182
		c0.231,5.317,1.388,6.319,8.941,6.319c2.004,0,11.08,0,13.084-0.848c2.004-0.848,2.93-2.389,3.469-5.55
		c0.154-0.848,0.309-1.156,0.693-1.156c0.463,0,0.463,0.617,0.463,1.156c0,0.617-0.617,5.858-1.002,7.478
		c-0.54,2.004-1.156,2.004-4.162,2.004c-5.781,0-15.705-0.154-18.711-0.23c-3.006-0.154-4.856-0.232-6.012-0.232
		c-0.154,0-1.465,0-3.084,0.078c-1.541,0-3.314,0.154-4.471,0.154c-0.848,0-1.233-0.154-1.233-0.617c0-0.23,0.154-0.463,0.616-0.463
		c0.694,0,1.619-0.154,2.312-0.309c1.542-0.309,1.928-2.004,2.235-4.24c0.386-3.237,0.386-9.325,0.386-16.726V58.648z"/>
	<path class="st1" d="M391.111,58.648c0-12.023,0-14.182-0.154-16.648c-0.154-2.621-0.772-3.854-3.315-4.395
		c-0.617-0.154-1.927-0.23-2.621-0.23c-0.309,0-0.616-0.154-0.616-0.463c0-0.461,0.385-0.617,1.233-0.617
		c1.772,0,3.853,0,5.55,0.078l3.16,0.154c0.539,0,21.562,0,23.336-0.076c1.464-0.078,2.697-0.232,3.314-0.387
		c0.385-0.076,0.693-0.385,1.079-0.385c0.23,0,0.308,0.309,0.308,0.693c0,0.539-0.386,1.465-0.616,3.623
		c-0.077,0.771-0.232,4.162-0.386,5.086c-0.077,0.387-0.231,0.848-0.539,0.848c-0.463,0-0.617-0.385-0.617-1
		c0-0.541-0.077-1.852-0.462-2.775c-0.54-1.234-2.123-2.158-6.285-2.621c-1.311-0.154-14.584-0.23-15.432-0.23
		c-0.309,0-0.463,0.23-0.463,0.77v21.275c0,0.539,0.077,0.77,0.463,0.77c1.002,0,16.166,0,17.939-0.154
		c1.85-0.154,2.93-0.307,3.623-1.078c0.539-0.617,0.848-1.002,1.156-1.002c0.232,0,0.385,0.154,0.385,0.617
		c0,0.461-0.385,1.771-0.616,4.314c-0.154,1.543-0.309,4.395-0.309,4.934c0,0.617,0,1.465-0.54,1.465
		c-0.385,0-0.539-0.309-0.539-0.693c0-0.771,0-1.543-0.309-2.543c-0.308-1.08-1.814-2.391-4.819-2.699
		c-2.081-0.23-14.585-0.385-15.896-0.385c-0.385,0-0.539,0.23-0.539,0.541v6.781c0,2.621-0.077,11.562,0,13.182
		c0.231,5.317,1.388,6.319,8.941,6.319c2.004,0,11.079,0,13.084-0.848c2.004-0.848,2.929-2.389,3.469-5.55
		c0.153-0.848,0.308-1.156,0.693-1.156c0.462,0,0.462,0.617,0.462,1.156c0,0.617-0.616,5.858-1.002,7.478
		c-0.539,2.004-1.155,2.004-4.162,2.004c-5.781,0-15.704-0.154-18.71-0.23c-3.007-0.154-4.857-0.232-6.013-0.232
		c-0.154,0-1.465,0-3.084,0.078c-1.541,0-3.314,0.154-4.47,0.154c-0.849,0-1.233-0.154-1.233-0.617c0-0.23,0.154-0.463,0.616-0.463
		c0.693,0,1.619-0.154,2.312-0.309c1.542-0.309,1.927-2.004,2.235-4.24c0.386-3.237,0.386-9.325,0.386-16.726V58.648z"/>
	<path class="st1" d="M101.59,84.086c0.154,6.321,0.926,8.325,3.007,8.94c1.465,0.387,3.16,0.463,3.854,0.463
		c0.385,0,0.616,0.154,0.616,0.463c0,0.463-0.462,0.617-1.388,0.617c-4.393,0-7.477-0.232-8.17-0.232
		c-0.693,0-3.932,0.232-7.4,0.232c-0.771,0-1.232-0.078-1.232-0.617c0-0.309,0.23-0.463,0.616-0.463c0.616,0,2.004-0.076,3.16-0.463
		c1.927-0.539,2.312-2.775,2.312-9.788l0.077-44.168c0-3.006,0.231-3.854,0.848-3.854c0.617,0,1.928,1.695,2.698,2.467
		c1.155,1.31,12.642,13.719,24.512,26.439c7.631,8.17,16.032,17.572,18.499,20.117l-0.848-39.158
		c-0.077-5.01-0.617-6.705-3.006-7.322c-1.388-0.309-3.16-0.385-3.777-0.385c-0.539,0-0.617-0.232-0.617-0.539
		c0-0.463,0.617-0.541,1.542-0.541c3.469,0,7.169,0.232,8.017,0.232c0.848,0,3.391-0.232,6.552-0.232
		c0.848,0,1.388,0.078,1.388,0.541c0,0.307-0.309,0.539-0.848,0.539c-0.387,0-0.926,0-1.851,0.23
		c-2.544,0.541-2.852,2.236-2.852,6.861l-0.154,45.169c0,5.086-0.154,5.473-0.694,5.473c-0.616,0-1.541-0.848-5.627-4.934
		c-0.848-0.771-11.947-12.101-20.117-20.888c-8.941-9.637-17.652-19.348-20.118-22.123L101.59,84.086z"/>
	<path class="st1" d="M180.289,72.215c0,7.4,0,13.488,0.385,16.726c0.23,2.236,0.693,3.932,3.006,4.24
		c1.08,0.154,2.775,0.309,3.469,0.309c0.463,0,0.617,0.232,0.617,0.463c0,0.385-0.386,0.617-1.233,0.617
		c-4.239,0-9.096-0.232-9.481-0.232c-0.385,0-5.241,0.232-7.554,0.232c-0.848,0-1.233-0.154-1.233-0.617
		c0-0.23,0.154-0.463,0.617-0.463c0.693,0,1.618-0.154,2.312-0.309c1.541-0.309,1.927-2.004,2.234-4.24
		c0.387-3.237,0.387-9.325,0.387-16.726V39.609l-11.408,0.154c-4.779,0.078-6.629,0.617-7.863,2.467
		c-0.848,1.311-1.078,1.852-1.31,2.391c-0.23,0.617-0.462,0.769-0.77,0.769c-0.233,0-0.386-0.23-0.386-0.693
		c0-0.771,1.542-7.398,1.695-8.016c0.155-0.463,0.463-1.465,0.77-1.465c0.54,0,1.311,0.771,3.393,0.926
		c2.234,0.23,5.164,0.385,6.089,0.385h28.905c2.467,0,4.239-0.154,5.473-0.385c1.156-0.154,1.85-0.387,2.158-0.387
		c0.386,0,0.386,0.463,0.386,0.926c0,2.312-0.232,7.631-0.232,8.479c0,0.693-0.231,1.002-0.539,1.002
		c-0.387,0-0.54-0.232-0.617-1.311l-0.077-0.848c-0.231-2.312-2.081-4.086-9.48-4.24l-9.712-0.154V72.215z"/>
	<path class="st1" d="M221.468,93.509c-1.27-0.553-1.361-0.869-1.361-3.008c0-3.958,0.363-7.126,0.454-8.392
		c0.09-0.871,0.272-1.268,0.726-1.268c0.545,0,0.636,0.238,0.636,0.871c0,0.713,0,1.822,0.273,2.93
		c1.361,5.858,7.352,8.075,13.435,8.075c8.714,0,12.98-5.462,12.98-10.53c0-5.463-2.633-9.441-10.438-15.062l-4.085-2.93
		c-9.623-6.889-11.801-10.984-11.801-16.369c0-8.471,7.262-14.25,18.79-14.25c3.54,0,6.173,0.316,8.441,0.791
		c1.725,0.316,1.518,0.1,2.244,0.1c0.726,0,0.907,0.158,0.907,0.555c0,0.396,0.893,3.508,1.773,8.688
		c0.212,1.25-0.181,1.822-0.636,1.822c-0.544,0-0.635-0.396-0.725-1.029c-0.091-0.949-1.838-3.402-2.383-4.273
		c-0.544-0.871-2.995-3.881-11.347-3.881c-6.263,0-11.164,3.404-11.164,9.184c0,4.514,2.359,6.551,11.074,12.488l2.541,1.742
		c10.712,7.363,13.253,13.084,13.253,19.418c0,3.246-1.452,9.263-7.716,13.143c-3.902,2.373-8.805,3.324-13.706,3.324
		C229.365,95.647,225.189,95.093,221.468,93.509z"/>
	<path class="st1" d="M280.587,72.215c0,7.4,0,13.488,0.379,16.726c0.228,2.236,0.683,3.932,2.956,4.24
		c1.062,0.154,2.729,0.309,3.411,0.309c0.454,0,0.606,0.232,0.606,0.463c0,0.385-0.379,0.617-1.213,0.617
		c-4.169,0-8.944-0.232-9.323-0.232c-0.379,0-5.154,0.232-7.429,0.232c-0.834,0-1.213-0.154-1.213-0.617
		c0-0.23,0.151-0.463,0.606-0.463c0.683,0,1.592-0.154,2.274-0.309c1.516-0.309,1.895-2.004,2.198-4.24
		c0.379-3.237,0.379-9.325,0.379-16.726V39.609l-11.219,0.154c-4.699,0.078-6.078,0.617-7.29,2.467
		c-0.834,1.311-1.062,1.852-1.289,2.391c-0.227,0.617-0.455,0.769-0.758,0.769c-0.228,0-0.379-0.23-0.379-0.693
		c0-0.771,1.516-7.398,1.667-8.016c0.152-0.463,0.455-1.465,0.759-1.465c0.53,0,1.289,0.771,3.335,0.926
		c2.198,0.23,4.638,0.385,5.547,0.385h28.425c2.426,0,4.169-0.154,5.382-0.385c1.138-0.154,1.82-0.387,2.123-0.387
		c0.379,0,0.379,0.463,0.379,0.926c0,2.312-0.228,7.631-0.228,8.479c0,0.693-0.228,1.002-0.531,1.002
		c-0.379,0-0.53-0.232-0.605-1.311l-0.076-0.848c-0.228-2.312-2.047-4.086-9.323-4.24l-9.551-0.154V72.215z"/>
	<path class="st1" d="M315.224,38.223c1.064-2.543,1.42-3.006,1.952-3.006c0.531,0,0.886,0.385,1.951,2.775
		c1.33,2.928,15.257,34.762,20.668,46.479c3.192,6.86,5.766,8.095,7.628,8.556c1.331,0.387,2.662,0.463,3.549,0.463
		c0.531,0,0.887,0.076,0.887,0.463c0,0.463-0.798,0.617-1.773,0.617c-1.331,0-7.807,0-13.927-0.154
		c-1.686-0.078-2.662-0.078-2.662-0.541c0-0.309,0.267-0.461,0.621-0.539c0.533-0.154,1.065-0.848,0.533-2.08l-8.25-18.962
		c-0.178-0.309-0.354-0.463-0.799-0.463h-19.07c-0.444,0-0.71,0.23-0.888,0.615l-5.322,13.645c-0.798,1.928-1.242,3.776-1.242,5.165
		c0,1.541,1.863,2.234,3.371,2.234h0.888c0.621,0,0.886,0.154,0.886,0.463c0,0.463-0.531,0.617-1.33,0.617
		c-2.129,0-5.943-0.232-6.919-0.232c-0.976,0-5.854,0.232-10.023,0.232c-1.153,0-1.686-0.154-1.686-0.617
		c0-0.309,0.355-0.463,0.799-0.463c0.621,0,1.863-0.076,2.572-0.154c4.081-0.463,5.855-3.391,7.451-7.245L315.224,38.223z
		 M324.449,69.055c0.443,0,0.443-0.23,0.355-0.539l-8.427-20.813c-0.443-1.156-0.888-1.156-1.33,0l-7.807,20.813
		c-0.178,0.385,0,0.539,0.267,0.539H324.449z"/>
	<path class="st1" d="M362.262,72.215c0,7.4,0,13.488,0.386,16.726c0.23,2.236,0.693,3.932,3.007,4.24
		c1.079,0.154,2.774,0.309,3.468,0.309c0.463,0,0.617,0.232,0.617,0.463c0,0.385-0.386,0.617-1.233,0.617
		c-4.239,0-9.096-0.232-9.481-0.232c-0.385,0-5.241,0.232-7.554,0.232c-0.848,0-1.233-0.154-1.233-0.617
		c0-0.23,0.154-0.463,0.617-0.463c0.693,0,1.619-0.154,2.312-0.309c1.542-0.309,1.927-2.004,2.234-4.24
		c0.387-3.237,0.387-9.325,0.387-16.726V39.609l-11.409,0.154c-4.778,0.078-6.628,0.617-7.862,2.467
		c-0.848,1.311-1.079,1.852-1.31,2.391c-0.232,0.617-0.463,0.769-0.771,0.769c-0.232,0-0.386-0.23-0.386-0.693
		c0-0.771,1.541-7.398,1.695-8.016c0.154-0.463,0.463-1.465,0.771-1.465c0.54,0,1.31,0.771,3.392,0.926
		c2.235,0.23,5.164,0.385,6.089,0.385h28.905c2.466,0,4.239-0.154,5.473-0.385c1.156-0.154,1.85-0.387,2.158-0.387
		c0.386,0,0.386,0.463,0.386,0.926c0,2.312-0.232,7.631-0.232,8.479c0,0.693-0.231,1.002-0.539,1.002
		c-0.387,0-0.54-0.232-0.617-1.311l-0.077-0.848c-0.231-2.312-2.081-4.086-9.48-4.24l-9.713-0.154V72.215z"/>
	<path class="st1" d="M33.75,113.679c0-3.861,0-4.555-0.049-5.346c-0.051-0.842-0.248-1.238-1.064-1.41
		c-0.198-0.049-0.619-0.074-0.842-0.074c-0.1,0-0.197-0.051-0.197-0.148c0-0.149,0.123-0.197,0.395-0.197
		c1.114,0,2.624,0.072,2.847,0.072c0.223,0,1.707-0.072,2.449-0.072c0.272,0,0.396,0.049,0.396,0.197c0,0.098-0.1,0.148-0.198,0.148
		c-0.173,0-0.321,0.025-0.618,0.074c-0.668,0.098-0.867,0.545-0.916,1.41c-0.05,0.791-0.05,1.484-0.05,5.346v3.465
		c0,3.564,0.792,5.098,1.856,6.113c1.213,1.139,2.326,1.361,3.736,1.361c1.51,0,2.995-0.719,3.887-1.783
		c1.138-1.41,1.434-3.514,1.434-6.062v-3.094c0-3.861,0-4.555-0.05-5.346c-0.049-0.842-0.247-1.238-1.063-1.41
		c-0.198-0.049-0.619-0.074-0.842-0.074c-0.099,0-0.198-0.051-0.198-0.148c0-0.149,0.124-0.197,0.396-0.197
		c1.113,0,2.475,0.072,2.623,0.072c0.173,0,1.336-0.072,2.079-0.072c0.272,0,0.396,0.049,0.396,0.197
		c0,0.098-0.099,0.148-0.197,0.148c-0.174,0-0.322,0.025-0.619,0.074c-0.668,0.148-0.866,0.545-0.916,1.41
		c-0.049,0.791-0.049,1.484-0.049,5.346v2.648c0,2.672-0.297,5.643-2.277,7.4c-1.781,1.584-3.639,1.83-5.098,1.83
		c-0.842,0-3.342-0.098-5.099-1.758c-1.213-1.162-2.153-2.895-2.153-6.508V113.679z"/>
	<path class="st1" d="M78.318,121.847c0.05,2.029,0.297,2.672,0.965,2.869c0.471,0.125,1.016,0.148,1.238,0.148
		c0.123,0,0.197,0.051,0.197,0.15c0,0.146-0.148,0.197-0.445,0.197c-1.41,0-2.4-0.074-2.623-0.074c-0.223,0-1.262,0.074-2.376,0.074
		c-0.247,0-0.396-0.025-0.396-0.197c0-0.1,0.074-0.15,0.197-0.15c0.198,0,0.645-0.023,1.016-0.148
		c0.618-0.172,0.742-0.891,0.742-3.143l0.024-14.18c0-0.967,0.074-1.238,0.272-1.238c0.197,0,0.618,0.545,0.866,0.793
		c0.371,0.42,4.059,4.404,7.87,8.488c2.449,2.623,5.147,5.643,5.939,6.459l-0.272-12.572c-0.024-1.609-0.198-2.152-0.966-2.352
		c-0.445-0.098-1.014-0.123-1.212-0.123c-0.173,0-0.198-0.074-0.198-0.174c0-0.148,0.198-0.172,0.495-0.172
		c1.114,0,2.302,0.072,2.574,0.072s1.089-0.072,2.103-0.072c0.273,0,0.446,0.023,0.446,0.172c0,0.1-0.099,0.174-0.272,0.174
		c-0.123,0-0.297,0-0.594,0.074c-0.816,0.172-0.916,0.717-0.916,2.201l-0.049,14.504c0,1.633-0.05,1.756-0.223,1.756
		c-0.198,0-0.495-0.271-1.807-1.584c-0.272-0.246-3.836-3.885-6.46-6.705c-2.87-3.094-5.667-6.213-6.459-7.104L78.318,121.847z"/>
	<path class="st1" d="M125.04,118.034c0,2.377,0,4.332,0.124,5.371c0.074,0.717,0.223,1.262,0.965,1.361
		c0.347,0.049,0.891,0.098,1.113,0.098c0.148,0,0.198,0.074,0.198,0.15c0,0.123-0.124,0.197-0.396,0.197
		c-1.361,0-2.921-0.074-3.045-0.074c-0.123,0-1.683,0.074-2.425,0.074c-0.273,0-0.396-0.051-0.396-0.197
		c0-0.076,0.049-0.15,0.197-0.15c0.223,0,0.52-0.049,0.743-0.098c0.495-0.1,0.618-0.645,0.718-1.361
		c0.123-1.039,0.123-2.994,0.123-5.371v-4.355c0-3.861,0-4.555-0.049-5.346c-0.05-0.842-0.297-1.262-0.842-1.385
		c-0.272-0.074-0.594-0.1-0.768-0.1c-0.099,0-0.197-0.051-0.197-0.148c0-0.149,0.123-0.197,0.396-0.197
		c0.816,0,2.376,0.072,2.499,0.072c0.124,0,1.684-0.072,2.426-0.072c0.272,0,0.396,0.049,0.396,0.197c0,0.098-0.1,0.148-0.198,0.148
		c-0.173,0-0.321,0.025-0.618,0.074c-0.669,0.123-0.867,0.545-0.916,1.41c-0.05,0.791-0.05,1.484-0.05,5.346V118.034z"/>
	<path class="st1" d="M161.22,122.192c1.435-3.316,4.751-11.953,5.296-13.736c0.124-0.369,0.223-0.717,0.223-0.939
		c0-0.199-0.074-0.445-0.321-0.568c-0.298-0.1-0.669-0.1-0.941-0.1c-0.148,0-0.272-0.025-0.272-0.148
		c0-0.149,0.148-0.197,0.544-0.197c0.99,0,2.129,0.072,2.426,0.072c0.148,0,1.213-0.072,1.93-0.072c0.273,0,0.422,0.049,0.422,0.172
		c0,0.123-0.1,0.174-0.297,0.174c-0.174,0-0.719,0-1.189,0.297c-0.321,0.223-0.692,0.643-1.36,2.326
		c-0.273,0.693-1.51,3.662-2.772,6.707c-1.51,3.613-2.624,6.287-3.192,7.498c-0.693,1.484-0.792,1.881-1.039,1.881
		c-0.298,0-0.422-0.346-0.892-1.535l-6.063-15.17c-0.545-1.385-0.916-1.658-1.782-1.904c-0.371-0.1-0.792-0.1-0.94-0.1
		c-0.148,0-0.197-0.074-0.197-0.174c0-0.148,0.247-0.172,0.643-0.172c1.189,0,2.6,0.072,2.896,0.072
		c0.247,0,1.361-0.072,2.301-0.072c0.445,0,0.668,0.049,0.668,0.172c0,0.123-0.073,0.174-0.247,0.174
		c-0.272,0-0.718,0.025-0.94,0.123c-0.271,0.123-0.322,0.322-0.322,0.496c0,0.32,0.298,1.088,0.669,2.053L161.22,122.192z"/>
	<path class="st1" d="M196.087,113.679c0-3.861,0-4.555-0.05-5.346c-0.049-0.842-0.247-1.238-1.064-1.41
		c-0.197-0.049-0.617-0.074-0.841-0.074c-0.099,0-0.198-0.051-0.198-0.148c0-0.149,0.124-0.197,0.396-0.197
		c0.568,0,1.237,0,1.781,0.023l1.016,0.049c0.172,0,5.098,0,5.666-0.024c0.471-0.025,0.867-0.074,1.065-0.125
		c0.125-0.023,0.223-0.123,0.348-0.123c0.074,0,0.099,0.1,0.099,0.223c0,0.174-0.124,0.471-0.198,1.164
		c-0.025,0.246-0.074,1.336-0.123,1.633c-0.025,0.123-0.074,0.272-0.174,0.272c-0.148,0-0.198-0.123-0.198-0.32
		c0-0.174-0.024-0.596-0.148-0.893c-0.173-0.395-0.421-0.691-1.757-0.842c-0.421-0.049-3.118-0.072-3.391-0.072
		c-0.1,0-0.148,0.072-0.148,0.246v6.832c0,0.172,0.024,0.246,0.148,0.246c0.322,0,3.365,0,3.935-0.049
		c0.595-0.049,0.94-0.1,1.163-0.348c0.174-0.197,0.272-0.32,0.371-0.32c0.074,0,0.125,0.049,0.125,0.197
		c0,0.148-0.125,0.57-0.199,1.387c-0.049,0.494-0.099,1.41-0.099,1.584c0,0.197,0,0.471-0.173,0.471c-0.124,0-0.174-0.1-0.174-0.223
		c0-0.248,0-0.496-0.099-0.818c-0.099-0.346-0.321-0.766-1.287-0.865c-0.669-0.074-3.118-0.125-3.539-0.125
		c-0.124,0-0.173,0.074-0.173,0.174v2.178c0,0.842-0.025,3.713,0,4.232c0.074,1.707,0.445,2.029,2.871,2.029
		c0.643,0,1.732,0,2.375-0.273c0.644-0.271,0.941-0.766,1.113-1.781c0.051-0.271,0.1-0.371,0.224-0.371
		c0.148,0,0.148,0.199,0.148,0.371c0,0.197-0.198,1.881-0.321,2.4c-0.174,0.645-0.371,0.645-1.337,0.645
		c-1.856,0-3.218-0.049-4.183-0.074c-0.965-0.051-1.559-0.074-1.93-0.074c-0.051,0-0.471,0-0.99,0.023
		c-0.495,0-1.064,0.051-1.436,0.051c-0.272,0-0.396-0.051-0.396-0.197c0-0.076,0.051-0.15,0.198-0.15
		c0.224,0,0.52-0.049,0.743-0.098c0.494-0.1,0.618-0.645,0.717-1.361c0.124-1.039,0.124-2.994,0.124-5.371V113.679z"/>
	<path class="st1" d="M233.156,113.679c0-3.861,0-4.555-0.049-5.346c-0.05-0.842-0.247-1.238-1.065-1.41
		c-0.197-0.049-0.619-0.074-0.842-0.074c-0.099,0-0.197-0.051-0.197-0.148c0-0.149,0.124-0.197,0.395-0.197
		c1.113,0,2.673,0.072,2.797,0.072c0.272,0,2.153-0.072,2.92-0.072c1.56,0,3.218,0.146,4.529,1.088
		c0.619,0.445,1.708,1.658,1.708,3.365c0,1.832-0.768,3.662-2.995,5.717c2.029,2.6,3.713,4.801,5.147,6.336
		c1.338,1.41,2.4,1.684,3.02,1.783c0.471,0.072,0.817,0.072,0.965,0.072c0.125,0,0.224,0.074,0.224,0.15
		c0,0.146-0.148,0.197-0.594,0.197h-1.758c-1.386,0-2.004-0.123-2.648-0.471c-1.063-0.568-1.93-1.781-3.341-3.637
		c-1.039-1.361-2.203-3.021-2.697-3.664c-0.099-0.1-0.173-0.148-0.321-0.148l-3.045-0.049c-0.123,0-0.173,0.074-0.173,0.197v0.594
		c0,2.377,0,4.332,0.124,5.371c0.074,0.717,0.223,1.262,0.965,1.361c0.347,0.049,0.891,0.098,1.114,0.098
		c0.148,0,0.197,0.074,0.197,0.15c0,0.123-0.123,0.197-0.395,0.197c-1.361,0-2.92-0.074-3.044-0.074
		c-0.025,0-1.585,0.074-2.326,0.074c-0.272,0-0.396-0.051-0.396-0.197c0-0.076,0.049-0.15,0.198-0.15
		c0.223,0,0.52-0.049,0.742-0.098c0.495-0.1,0.619-0.645,0.718-1.361c0.123-1.039,0.123-2.994,0.123-5.371V113.679z
		 M235.137,115.833c0,0.123,0.05,0.223,0.173,0.297c0.371,0.223,1.511,0.395,2.6,0.395c0.594,0,1.286-0.074,1.855-0.469
		c0.866-0.596,1.51-1.932,1.51-3.812c0-3.094-1.634-4.949-4.281-4.949c-0.743,0-1.411,0.074-1.658,0.148
		c-0.124,0.049-0.198,0.148-0.198,0.297V115.833z"/>
	<path class="st1" d="M272.133,124.89c-0.347-0.174-0.372-0.271-0.372-0.939c0-1.238,0.1-2.229,0.124-2.625
		c0.025-0.271,0.074-0.395,0.198-0.395c0.148,0,0.173,0.074,0.173,0.271c0,0.223,0,0.57,0.075,0.916
		c0.37,1.832,2.005,2.523,3.662,2.523c2.376,0,3.539-1.707,3.539-3.291c0-1.707-0.718-2.697-2.846-4.455l-1.114-0.916
		c-2.623-2.152-3.217-3.688-3.217-5.369c0-2.648,1.98-4.455,5.122-4.455c0.966,0,1.684,0.1,2.302,0.248
		c0.471,0.1,0.668,0.123,0.866,0.123c0.198,0,0.248,0.049,0.248,0.174c0,0.123-0.099,0.939-0.099,2.623
		c0,0.397-0.05,0.57-0.174,0.57c-0.148,0-0.174-0.125-0.198-0.322c-0.024-0.297-0.173-0.967-0.321-1.238
		c-0.148-0.271-0.817-1.312-3.094-1.312c-1.707,0-3.044,1.066-3.044,2.873c0,1.41,0.644,2.301,3.02,4.156l0.692,0.545
		c2.921,2.301,3.613,3.836,3.613,5.816c0,1.014-0.396,2.895-2.103,4.107c-1.065,0.742-2.401,1.039-3.738,1.039
		C274.285,125.558,273.146,125.384,272.133,124.89z"/>
	<path class="st1" d="M311.875,118.034c0,2.377,0,4.332,0.125,5.371c0.073,0.717,0.223,1.262,0.965,1.361
		c0.347,0.049,0.891,0.098,1.113,0.098c0.148,0,0.198,0.074,0.198,0.15c0,0.123-0.124,0.197-0.397,0.197
		c-1.361,0-2.92-0.074-3.043-0.074c-0.125,0-1.684,0.074-2.426,0.074c-0.272,0-0.397-0.051-0.397-0.197
		c0-0.076,0.05-0.15,0.198-0.15c0.223,0,0.52-0.049,0.742-0.098c0.495-0.1,0.619-0.645,0.719-1.361
		c0.123-1.039,0.123-2.994,0.123-5.371v-4.355c0-3.861,0-4.555-0.05-5.346c-0.049-0.842-0.297-1.262-0.842-1.385
		c-0.271-0.074-0.593-0.1-0.767-0.1c-0.1,0-0.198-0.051-0.198-0.148c0-0.149,0.124-0.197,0.397-0.197c0.816,0,2.375,0.072,2.5,0.072
		c0.123,0,1.682-0.072,2.425-0.072c0.272,0,0.396,0.049,0.396,0.197c0,0.098-0.099,0.148-0.198,0.148
		c-0.173,0-0.321,0.025-0.618,0.074c-0.668,0.123-0.866,0.545-0.916,1.41c-0.05,0.791-0.05,1.484-0.05,5.346V118.034z"/>
	<path class="st1" d="M347.882,118.034c0,2.377,0,4.332,0.124,5.371c0.074,0.717,0.223,1.262,0.965,1.361
		c0.347,0.049,0.891,0.098,1.113,0.098c0.148,0,0.198,0.074,0.198,0.15c0,0.123-0.124,0.197-0.396,0.197
		c-1.361,0-2.921-0.074-3.044-0.074c-0.124,0-1.684,0.074-2.426,0.074c-0.272,0-0.396-0.051-0.396-0.197
		c0-0.076,0.05-0.15,0.198-0.15c0.223,0,0.52-0.049,0.742-0.098c0.496-0.1,0.619-0.645,0.719-1.361
		c0.123-1.039,0.123-2.994,0.123-5.371v-10.469l-3.663,0.051c-1.534,0.023-2.128,0.197-2.524,0.791
		c-0.272,0.422-0.346,0.594-0.421,0.768c-0.073,0.197-0.147,0.248-0.247,0.248c-0.074,0-0.123-0.076-0.123-0.223
		c0-0.248,0.495-2.377,0.544-2.574c0.049-0.148,0.148-0.471,0.247-0.471c0.174,0,0.421,0.248,1.09,0.297
		c0.717,0.074,1.657,0.123,1.954,0.123h9.281c0.792,0,1.361-0.049,1.757-0.123c0.371-0.049,0.594-0.123,0.693-0.123
		c0.123,0,0.123,0.148,0.123,0.297c0,0.742-0.073,2.449-0.073,2.721c0,0.225-0.074,0.324-0.174,0.324
		c-0.124,0-0.174-0.076-0.198-0.422l-0.024-0.271c-0.074-0.744-0.668-1.312-3.044-1.361l-3.118-0.051V118.034z"/>
	<path class="st1" d="M384.383,118.802c0-1.336-0.248-1.881-0.569-2.6c-0.173-0.395-3.489-5.84-4.355-7.127
		c-0.619-0.916-1.237-1.535-1.684-1.83c-0.37-0.248-0.841-0.396-1.064-0.396c-0.124,0-0.247-0.051-0.247-0.174
		c0-0.1,0.099-0.172,0.321-0.172c0.47,0,2.326,0.072,2.45,0.072c0.173,0,1.114-0.072,2.079-0.072c0.272,0,0.321,0.072,0.321,0.172
		c0,0.1-0.148,0.123-0.371,0.223c-0.198,0.1-0.322,0.248-0.322,0.445c0,0.297,0.124,0.594,0.322,0.967
		c0.396,0.717,4.108,7.102,4.554,7.82c0.471-1.041,3.613-6.459,4.108-7.277c0.321-0.52,0.42-0.939,0.42-1.262
		c0-0.346-0.099-0.619-0.395-0.693c-0.223-0.074-0.371-0.123-0.371-0.248c0-0.098,0.148-0.146,0.397-0.146
		c0.644,0,1.435,0.072,1.633,0.072c0.148,0,1.93-0.072,2.4-0.072c0.174,0,0.322,0.049,0.322,0.146c0,0.125-0.124,0.199-0.322,0.199
		c-0.272,0-0.742,0.1-1.139,0.346c-0.495,0.297-0.767,0.594-1.311,1.262c-0.817,0.99-4.282,6.807-4.727,7.871
		c-0.372,0.891-0.372,1.658-0.372,2.475v2.129c0,0.395,0,1.436,0.075,2.475c0.05,0.717,0.272,1.262,1.015,1.361
		c0.347,0.049,0.891,0.098,1.113,0.098c0.149,0,0.198,0.074,0.198,0.15c0,0.123-0.124,0.197-0.397,0.197
		c-1.36,0-2.92-0.074-3.043-0.074c-0.125,0-1.684,0.074-2.426,0.074c-0.272,0-0.397-0.051-0.397-0.197c0-0.076,0.05-0.15,0.198-0.15
		c0.223,0,0.521-0.049,0.743-0.098c0.494-0.1,0.718-0.645,0.767-1.361c0.074-1.039,0.074-2.08,0.074-2.475V118.802z"/>
	<path class="st2" d="M224.75,26.43c0,0,0.764-0.74,2.67-0.918c2.084-0.193,3.976-1.375,4.873-3.297
		c0.214-0.459,0.353-0.934,0.608-1.375c0.66-1.139,1.747-2.256,3.139-2.31c1.117-0.121,1.948,0.189,2.904-0.223
		c0.855-0.416,0.938-0.479,0.938-0.479s-0.512,0.18-1.494,0.23c-0.812,0.07-2.035-0.244-2.786-0.215
		c-0.748,0-2.342,0.338-3.26,1.184c-0.916,0.852-1.802,2.213-2.719,2.582c-0.79,0.316-1.678,0.588-2.537,0.535
		c-0.528-0.031-1.04-0.191-1.562-0.283c-0.901-0.158-1.816-0.1-2.706,0.094l10.539-13.531l-14.105,10.113
		c0,0,0.016-0.629,0.426-1.514c0.404-0.877,1.645-1.769,2.068-3.275c0.291-1.264,0.219-2.033-0.369-3.49
		c-0.534-1.303-0.579-2.334-0.429-3.131c0.17-0.9,0.732-1.834,1.239-2.324c0.87-0.836,1.071-1.328,1.239-1.955l0.154-0.611
		c0,0-0.032,0.258-0.677,1.068c-0.675,0.814-1.094,0.645-1.939,1.434c-0.852,0.779-1.457,1.746-1.73,2.881
		c-0.256,1.5,0.224,1.826,0.106,3.193c-0.118,1.283-0.417,1.709-0.99,2.479c-0.538,0.584-1.18,1.094-1.931,1.465
		c-0.716,0.369-1.344,1.008-1.73,1.924L212.068,0l-2.51,16.685c0,0-0.734-0.713-0.893-1.879c-0.1-0.717-0.146-2.635-1.28-3.81
		c-0.95-0.981-1.584-1.272-3.057-1.848c-0.875-0.367-1.98-1.352-2.446-2.408c-0.424-0.982-0.371-2.75-0.506-3.162
		c-0.189-0.711-0.749-1.373-0.749-1.373s0.337,0.836,0.306,1.647c-0.032,0.814-0.391,2.141-0.338,2.818
		c0.049,0.699,0.17,1.769,1.424,2.92c1.256,1.158,1.77,1.022,2.551,2.551c0.779,1.527,0.645,2.309,0.369,3.154
		c-0.273,0.852-0.346,1.772-0.223,2.287c0.135,0.619,0.183,0.955,0.183,0.955L190.804,8.424l10.437,13.523
		c0,0-1.391,0.035-2.115-0.609c-1.006-0.875-1.682-1.318-2.855-1.641c0,0-1.103-0.395-2.696,0.08
		c-1.602,0.475-1.25,0.44-2.335,0.609c-1.088,0.17-2.831-0.096-3.685-0.812c-0.845-0.717-1.545-1.344-2.157-1.545
		c-0.61-0.201-1.102-0.258-1.102-0.258s0.981,0.346,1.73,1.191c0.765,0.869,0.95,1.672,2.035,2.277
		c1.144,0.625,2.109,0.875,3.131,0.811c0.844-0.039,1.351-0.274,2.404-0.152c0.734,0.082,2.041,0.465,2.641,1.219
		c0.934,1.146,1.423,2.105,1.883,2.531c0.578,0.547,1.286,0.781,1.286,0.781l-17.354,2.887c0,0,24.391-1.053,30.008-1.053
		c5.617,0,30.377,1.123,30.437,1.127L224.75,26.43z"/>
	<g>
		<path class="st1" d="M427.506,89.618c1.44,0,2.616,1.1,2.616,2.615c0,1.52-1.176,2.611-2.616,2.611
			c-1.44,0-2.608-1.092-2.608-2.611C424.897,90.718,426.065,89.618,427.506,89.618z M427.515,94.597c1.295,0,2.353-0.98,2.353-2.363
			c0-1.379-1.058-2.369-2.353-2.369c-1.296,0-2.352,0.99-2.352,2.369C425.162,93.616,426.219,94.597,427.515,94.597z
			 M428.179,93.718c-0.076-0.101-0.119-0.188-0.153-0.342l-0.093-0.383c-0.077-0.299-0.333-0.41-0.64-0.41h-0.239v1.135h-0.631
			v-3.076h1.202c0.69,0,1.134,0.297,1.134,0.955c0,0.51-0.358,0.766-0.853,0.793c0.324,0.049,0.562,0.145,0.665,0.484l0.119,0.459
			c0.043,0.146,0.103,0.283,0.188,0.385H428.179z M427.054,92.099h0.409c0.512,0,0.674-0.17,0.674-0.461
			c0-0.299-0.213-0.477-0.588-0.477h-0.495V92.099z"/>
	</g>
</g>
</svg>
